<mxfile host="Electron" agent="Mozilla/5.0 (Windows NT 10.0; Win64; x64) AppleWebKit/537.36 (KHTML, like Gecko) draw.io/28.1.2 Chrome/138.0.7204.243 Electron/37.4.0 Safari/537.36" version="28.1.2">
  <diagram name="Page-1" id="PDxT80SH03sA9HUvDvpQ">
    <mxGraphModel dx="1111" dy="571" grid="1" gridSize="10" guides="1" tooltips="1" connect="1" arrows="1" fold="1" page="1" pageScale="1" pageWidth="850" pageHeight="1100" math="0" shadow="0">
      <root>
        <mxCell id="0" />
        <mxCell id="1" parent="0" />
        <mxCell id="yigLknSaySQKoZKF8kKO-1" value="MainAgent" style="swimlane;fontStyle=1;align=center;verticalAlign=top;childLayout=stackLayout;horizontal=1;startSize=26;horizontalStack=0;resizeParent=1;resizeParentMax=0;resizeLast=0;collapsible=1;marginBottom=0;whiteSpace=wrap;html=1;" vertex="1" parent="1">
          <mxGeometry x="300" y="174" width="160" height="80" as="geometry" />
        </mxCell>
        <mxCell id="yigLknSaySQKoZKF8kKO-2" value="- task_queue&amp;nbsp;&lt;div&gt;_ results&lt;/div&gt;" style="text;strokeColor=none;fillColor=none;align=left;verticalAlign=top;spacingLeft=4;spacingRight=4;overflow=hidden;rotatable=0;points=[[0,0.5],[1,0.5]];portConstraint=eastwest;whiteSpace=wrap;html=1;" vertex="1" parent="yigLknSaySQKoZKF8kKO-1">
          <mxGeometry y="26" width="160" height="54" as="geometry" />
        </mxCell>
        <mxCell id="yigLknSaySQKoZKF8kKO-4" value="+ receive_request(type)&lt;div&gt;+ assign_task()&lt;/div&gt;&lt;div&gt;+ aggregate_result()&lt;/div&gt;" style="text;strokeColor=none;fillColor=none;align=left;verticalAlign=top;spacingLeft=4;spacingRight=4;overflow=hidden;rotatable=0;points=[[0,0.5],[1,0.5]];portConstraint=eastwest;whiteSpace=wrap;html=1;" vertex="1" parent="1">
          <mxGeometry x="300" y="254" width="160" height="60" as="geometry" />
        </mxCell>
        <mxCell id="yigLknSaySQKoZKF8kKO-5" value="" style="endArrow=none;html=1;rounded=0;" edge="1" parent="1">
          <mxGeometry width="50" height="50" relative="1" as="geometry">
            <mxPoint x="301" y="314" as="sourcePoint" />
            <mxPoint x="300" y="254" as="targetPoint" />
          </mxGeometry>
        </mxCell>
        <mxCell id="yigLknSaySQKoZKF8kKO-6" value="" style="endArrow=none;html=1;rounded=0;" edge="1" parent="1">
          <mxGeometry width="50" height="50" relative="1" as="geometry">
            <mxPoint x="300" y="314" as="sourcePoint" />
            <mxPoint x="460" y="314" as="targetPoint" />
          </mxGeometry>
        </mxCell>
        <mxCell id="yigLknSaySQKoZKF8kKO-7" value="" style="endArrow=none;html=1;rounded=0;" edge="1" parent="1">
          <mxGeometry width="50" height="50" relative="1" as="geometry">
            <mxPoint x="460" y="314" as="sourcePoint" />
            <mxPoint x="460" y="254" as="targetPoint" />
          </mxGeometry>
        </mxCell>
        <mxCell id="yigLknSaySQKoZKF8kKO-8" value="UI" style="swimlane;fontStyle=1;align=center;verticalAlign=top;childLayout=stackLayout;horizontal=1;startSize=26;horizontalStack=0;resizeParent=1;resizeParentMax=0;resizeLast=0;collapsible=1;marginBottom=0;whiteSpace=wrap;html=1;" vertex="1" parent="1">
          <mxGeometry x="40" y="174" width="160" height="78" as="geometry" />
        </mxCell>
        <mxCell id="yigLknSaySQKoZKF8kKO-9" value="+ send_request ()" style="text;strokeColor=none;fillColor=none;align=left;verticalAlign=top;spacingLeft=4;spacingRight=4;overflow=hidden;rotatable=0;points=[[0,0.5],[1,0.5]];portConstraint=eastwest;whiteSpace=wrap;html=1;" vertex="1" parent="yigLknSaySQKoZKF8kKO-8">
          <mxGeometry y="26" width="160" height="26" as="geometry" />
        </mxCell>
        <mxCell id="yigLknSaySQKoZKF8kKO-11" value="+ receive_result ()" style="text;strokeColor=none;fillColor=none;align=left;verticalAlign=top;spacingLeft=4;spacingRight=4;overflow=hidden;rotatable=0;points=[[0,0.5],[1,0.5]];portConstraint=eastwest;whiteSpace=wrap;html=1;" vertex="1" parent="yigLknSaySQKoZKF8kKO-8">
          <mxGeometry y="52" width="160" height="26" as="geometry" />
        </mxCell>
        <mxCell id="yigLknSaySQKoZKF8kKO-12" value="" style="endArrow=classic;html=1;rounded=0;entryX=0.006;entryY=0.635;entryDx=0;entryDy=0;entryPerimeter=0;exitX=1.003;exitY=0.344;exitDx=0;exitDy=0;exitPerimeter=0;" edge="1" parent="1" source="yigLknSaySQKoZKF8kKO-11" target="yigLknSaySQKoZKF8kKO-2">
          <mxGeometry width="50" height="50" relative="1" as="geometry">
            <mxPoint x="204" y="234" as="sourcePoint" />
            <mxPoint x="370" y="280" as="targetPoint" />
          </mxGeometry>
        </mxCell>
        <mxCell id="yigLknSaySQKoZKF8kKO-13" value="(FastAPI)" style="text;html=1;align=center;verticalAlign=middle;resizable=0;points=[];autosize=1;strokeColor=none;fillColor=none;" vertex="1" parent="1">
          <mxGeometry x="210" y="210" width="70" height="30" as="geometry" />
        </mxCell>
        <mxCell id="yigLknSaySQKoZKF8kKO-14" value="Gemini AI" style="swimlane;fontStyle=1;align=center;verticalAlign=top;childLayout=stackLayout;horizontal=1;startSize=26;horizontalStack=0;resizeParent=1;resizeParentMax=0;resizeLast=0;collapsible=1;marginBottom=0;whiteSpace=wrap;html=1;" vertex="1" parent="1">
          <mxGeometry x="580" y="174" width="160" height="70" as="geometry" />
        </mxCell>
        <mxCell id="yigLknSaySQKoZKF8kKO-15" value="- api_endpoints&lt;div&gt;- response_question&lt;/div&gt;" style="text;strokeColor=none;fillColor=none;align=left;verticalAlign=top;spacingLeft=4;spacingRight=4;overflow=hidden;rotatable=0;points=[[0,0.5],[1,0.5]];portConstraint=eastwest;whiteSpace=wrap;html=1;" vertex="1" parent="yigLknSaySQKoZKF8kKO-14">
          <mxGeometry y="26" width="160" height="44" as="geometry" />
        </mxCell>
        <mxCell id="yigLknSaySQKoZKF8kKO-18" value="" style="endArrow=classic;html=1;rounded=0;entryX=0.13;entryY=0.021;entryDx=0;entryDy=0;entryPerimeter=0;" edge="1" parent="1" target="yigLknSaySQKoZKF8kKO-22">
          <mxGeometry width="50" height="50" relative="1" as="geometry">
            <mxPoint x="460" y="240" as="sourcePoint" />
            <mxPoint x="580" y="326.006" as="targetPoint" />
          </mxGeometry>
        </mxCell>
        <mxCell id="yigLknSaySQKoZKF8kKO-19" value="(FastAPI/Internal)" style="text;html=1;align=center;verticalAlign=middle;resizable=0;points=[];autosize=1;strokeColor=none;fillColor=none;" vertex="1" parent="1">
          <mxGeometry x="460" y="210" width="120" height="30" as="geometry" />
        </mxCell>
        <mxCell id="yigLknSaySQKoZKF8kKO-20" value="" style="endArrow=none;html=1;rounded=0;entryX=0.006;entryY=1.061;entryDx=0;entryDy=0;entryPerimeter=0;" edge="1" parent="1">
          <mxGeometry width="50" height="50" relative="1" as="geometry">
            <mxPoint x="580" y="280" as="sourcePoint" />
            <mxPoint x="579.9999999999998" y="244.00399999999996" as="targetPoint" />
          </mxGeometry>
        </mxCell>
        <mxCell id="yigLknSaySQKoZKF8kKO-22" value="+process_task()&lt;div&gt;+offline_fallback()&lt;/div&gt;" style="text;html=1;align=center;verticalAlign=middle;resizable=0;points=[];autosize=1;strokeColor=none;fillColor=none;" vertex="1" parent="1">
          <mxGeometry x="570" y="240" width="120" height="40" as="geometry" />
        </mxCell>
        <mxCell id="yigLknSaySQKoZKF8kKO-24" value="" style="endArrow=none;html=1;rounded=0;exitX=0.084;exitY=0.99;exitDx=0;exitDy=0;exitPerimeter=0;" edge="1" parent="1" source="yigLknSaySQKoZKF8kKO-22">
          <mxGeometry width="50" height="50" relative="1" as="geometry">
            <mxPoint x="650" y="350" as="sourcePoint" />
            <mxPoint x="740" y="280" as="targetPoint" />
          </mxGeometry>
        </mxCell>
        <mxCell id="yigLknSaySQKoZKF8kKO-25" value="" style="endArrow=none;html=1;rounded=0;entryX=1;entryY=1;entryDx=0;entryDy=0;" edge="1" parent="1" target="yigLknSaySQKoZKF8kKO-14">
          <mxGeometry width="50" height="50" relative="1" as="geometry">
            <mxPoint x="740" y="280" as="sourcePoint" />
            <mxPoint x="750" y="250" as="targetPoint" />
          </mxGeometry>
        </mxCell>
      </root>
    </mxGraphModel>
  </diagram>
</mxfile>
